<?xml version="1.0" encoding="UTF-8" standalone="no"?>
<svg
   width="24"
   height="24"
   version="1.1"
   viewBox="0 0 6.3499998 6.3499998"
   id="svg1"
   sodipodi:docname="hamburger.svg"
   inkscape:version="1.3.2 (091e20ef0f, 2023-11-25, custom)"
   xmlns:inkscape="http://www.inkscape.org/namespaces/inkscape"
   xmlns:sodipodi="http://sodipodi.sourceforge.net/DTD/sodipodi-0.dtd"
   xmlns="http://www.w3.org/2000/svg"
   xmlns:svg="http://www.w3.org/2000/svg"
   xmlns:rdf="http://www.w3.org/1999/02/22-rdf-syntax-ns#"
   xmlns:cc="http://creativecommons.org/ns#"
   xmlns:dc="http://purl.org/dc/elements/1.1/">
  <defs
     id="defs1" />
  <sodipodi:namedview
     id="namedview1"
     pagecolor="#ffffff"
     bordercolor="#666666"
     borderopacity="1.0"
     inkscape:showpageshadow="2"
     inkscape:pageopacity="0.0"
     inkscape:pagecheckerboard="0"
     inkscape:deskcolor="#d1d1d1"
     inkscape:zoom="9.8333333"
     inkscape:cx="12"
     inkscape:cy="11.949153"
     inkscape:window-width="1813"
     inkscape:window-height="927"
     inkscape:window-x="71"
     inkscape:window-y="66"
     inkscape:window-maximized="1"
     inkscape:current-layer="svg1" />
  <metadata
     id="metadata1">
    <rdf:RDF>
      <cc:Work
         rdf:about="">
        <dc:format>image/svg+xml</dc:format>
        <dc:type
           rdf:resource="http://purl.org/dc/dcmitype/StillImage" />
      </cc:Work>
    </rdf:RDF>
  </metadata>
  <g
     transform="translate(0,-290.65)"
     id="g1"
     style="fill:#ffffff">
    <path
       transform="matrix(.26458 0 0 .26458 0 290.65)"
       d="m4 3c-1.108 0-2 0.89201-2 2s0.89201 2 2 2h16c1.108 0 2-0.89201 2-2s-0.89202-2-2-2h-16zm0 6.7773c-1.108 0-2 0.94178-2 2.1113s0.89201 2.1113 2 2.1113h16c1.108 0 2-0.94178 2-2.1113s-0.89201-2.1113-2-2.1113h-16zm0 7c-1.108 0-2 0.94178-2 2.1113s0.89203 2.1113 2 2.1113h16c1.108 0 2-0.94178 2-2.1113s-0.89203-2.1113-2-2.1113h-16z"
       fill="#333f67"
       id="path1"
       style="fill:#ffffff" />
  </g>
</svg>
